<?xml version="1.0" encoding="utf-8"?>
<!-- Generator: Adobe Illustrator 16.0.4, SVG Export Plug-In . SVG Version: 6.00 Build 0)  -->
<!DOCTYPE svg PUBLIC "-//W3C//DTD SVG 1.1//EN" "http://www.w3.org/Graphics/SVG/1.1/DTD/svg11.dtd">
<svg version="1.1" xmlns="http://www.w3.org/2000/svg" xmlns:xlink="http://www.w3.org/1999/xlink" x="0px" y="0px"
	 width="138.458px" height="55.734px" viewBox="0 0 138.458 55.734" enable-background="new 0 0 138.458 55.734"
	 xml:space="preserve">
<g id="Layer_1">
	<g>
		<g>
			<path fill-rule="evenodd" clip-rule="evenodd" fill="#FF4848" d="M28.035,26.859c0.331-0.798,0.779-1.103,1.308-1.514
				c0.795-0.621,1.304-1.719,0.36-3.654c-2.079-2.723-3.393-2.47-3.393-5.098s6.39-4.333,6.568,0.686s4.467,2.644,4.467,2.644
				l-3.293-2.827c0,0-0.315-3.952-4.12-3.952s-6.58,3.669-2.866,7.059c2.873,2.285,2.624,3.601,1.739,4.335
				c-0.534,0.443-1.469,0.439-2.03,0.387c-0.18-0.043-0.384-0.098-0.615-0.167c-1.427-0.582-4.809-2.272-5.756-6.74
				c-0.408-3.182-0.044-5.129,0.446-5.385c1.521-0.34-0.502,4.53,1.521,6.906c0.254-3.493,1.806-3.867,3.079-6.65
				C27.282,8.927,26.606,0,17.906,0c-1.001,0.118-3.465,0-6.175,2.27c0,0,5.502-0.917,5.783,1.758c0,0-3.312-2.085-6.805,0
				C7.218,6.113,6.913,6.441,6.913,6.441s0.984,3.166,3.564,2.319c2.736-1.489,2.979-0.436,2.979,0.29
				c0,0.727-0.205,1.48-1.764,0.992c-1.763-0.352-2.27,0.406-2.27,0.406l1.288,1.874c0,0,0.412-0.696,1.413-0.42
				c2.493,0.731,4.186-0.965,4.438-2.541c0.24,3.272-2.598,4.183-5.251,6.311c-2.654,2.127-0.6,5.176-0.6,5.176H1.294L0,24.758
				l5.033,0.847l0.115-1.661c3.71,0.284,3.14,0.814,6.669,1.906c5.156,0.987,4.226-2.993,4.226-2.993s1.567,4.19-1.896,4.634
				c4.429,0.785,5.554,3.519,6.42,5.437c2.103,5.971,6.729,6.103,6.729,6.103l-0.054,1.831h-3.394l-1.477,3.264h8.02
				c-0.14-1.751-0.348-6.452,1.377-8.395C29.114,34.735,26.573,31.083,28.035,26.859z"/>
			<path fill-rule="evenodd" clip-rule="evenodd" fill="#FFC616" d="M17.076,3.074c0.233,0.252,0.397,0.561,0.438,0.954
				c0,0-0.221-0.138-0.604-0.307c-0.318,1.371-0.503,2.792-0.503,4.259c0,0.571,0.036,1.132,0.085,1.69
				c0.028-0.103,0.051-0.206,0.068-0.309c0.021,0.291,0.01,0.557-0.015,0.813c0.473,4.063,2.245,7.719,4.884,10.565
				c-0.438-0.768-0.801-1.665-1.025-2.722c-0.408-3.182-0.044-5.129,0.446-5.385c1.521-0.34-0.502,4.53,1.521,6.906
				c0.254-3.493,1.806-3.867,3.079-6.65c1.81-3.916,1.157-12.666-7.256-12.87C17.737,0.995,17.362,2.015,17.076,3.074z"/>
			<path fill-rule="evenodd" clip-rule="evenodd" fill="#FFBC00" d="M23.015,1.492c-1.203-0.864-2.779-1.423-4.82-1.473
				c-0.458,0.976-0.833,1.996-1.119,3.055c0.233,0.252,0.397,0.561,0.438,0.954c0,0-0.221-0.138-0.604-0.307
				c-0.318,1.371-0.503,2.792-0.503,4.259c0,0.571,0.036,1.132,0.085,1.69c0.028-0.103,0.051-0.206,0.068-0.309
				c0.021,0.291,0.01,0.557-0.015,0.813c0.294,2.526,1.091,4.894,2.286,7.009c0.498-0.247,0.975-0.526,1.426-0.844
				c-0.109-2.173,0.197-3.499,0.593-3.706c0.816-0.182,0.614,1.137,0.562,2.762c2.108-1.971,3.433-4.77,3.433-7.886
				C24.845,5.282,24.17,3.211,23.015,1.492z"/>
			<path fill-rule="evenodd" clip-rule="evenodd" fill="#FFBC00" d="M29.933,13.144c-3.805,0-6.58,3.669-2.866,7.059
				c2.873,2.285,2.624,3.601,1.739,4.335c-0.427,0.354-1.101,0.419-1.645,0.406c0.574,0.272,1.163,0.515,1.768,0.729
				c0.132-0.109,0.269-0.216,0.414-0.329c0.795-0.621,1.304-1.719,0.36-3.654c-2.079-2.723-3.393-2.47-3.393-5.098
				s6.39-4.333,6.568,0.686s4.467,2.644,4.467,2.644l-3.293-2.827C34.053,17.096,33.738,13.144,29.933,13.144z"/>
			<path fill-rule="evenodd" clip-rule="evenodd" fill="#FF4848" d="M0.469,8.45h4.023l4.94,6.584l1.723,0.071
				c0,0-2.75,1.626-1.587,4.684l-3.214-0.137L3.809,13.04l-1.968,0.062L0.469,8.45z"/>
			<path fill-rule="evenodd" clip-rule="evenodd" fill="#0FB777" d="M14.171,28.166c0,0,5.32,0.53,5.876,6.058
				c0.06,0.457-0.604,0.85-1.247,1.107c-0.639,0.355-1.326,0.598-0.909,1.528c0.604,0.963,2.054,0,2.054,0l-3.324,7.268H8.908
				l1.342-3.314h4.105c0.291-0.354,0.663-1.217-0.668-2.767C11.217,35.254,9.133,30.842,14.171,28.166z"/>
			<path fill-rule="evenodd" clip-rule="evenodd" fill="#AE3737" d="M29.533,36.146c0.746,0,1.464-0.11,2.148-0.302
				c0.03-0.037,0.056-0.079,0.086-0.113c-2.654-0.996-5.195-4.648-3.733-8.872c0.331-0.798,0.779-1.103,1.308-1.514
				c0.795-0.621,1.304-1.719,0.36-3.654c-0.458-0.6-0.876-1.05-1.253-1.423c-0.357,0.048-0.706,0.12-1.046,0.214
				c2.506,2.112,2.25,3.352,1.402,4.056c-0.534,0.443-1.469,0.439-2.03,0.387c-0.18-0.043-0.384-0.098-0.615-0.167
				c-0.655-0.267-1.722-0.773-2.777-1.669c-1.137,1.379-1.82,3.147-1.82,5.076C21.563,32.573,25.132,36.146,29.533,36.146z"/>
			<path fill-rule="evenodd" clip-rule="evenodd" fill="#FFE365" d="M7.458,7.549c0.538,0.818,1.5,1.71,3.019,1.212
				c2.736-1.489,2.979-0.436,2.979,0.29c0,0.727-0.205,1.48-1.764,0.992c-1.763-0.352-2.27,0.406-2.27,0.406l1.288,1.874
				c0,0,0.412-0.696,1.413-0.42c2.493,0.731,4.186-0.965,4.438-2.541c0.24,3.272-2.598,4.183-5.251,6.311
				c-2.337,1.873-1.024,4.458-0.677,5.05c0.785,0.259,1.622,0.402,2.493,0.402c3.142,0,5.851-1.825,7.148-4.47
				c-0.158-2.364,0.161-3.804,0.576-4.021c0.084-0.019,0.155-0.016,0.219-0.004c-0.266-4.167-3.715-7.466-7.943-7.466
				C10.905,5.164,8.903,6.081,7.458,7.549z"/>
			<path fill-rule="evenodd" clip-rule="evenodd" fill="#FFDE29" d="M13.125,5.164c-2.221,0-4.223,0.917-5.668,2.385
				c0.538,0.818,1.5,1.71,3.019,1.212c2.736-1.489,2.979-0.436,2.979,0.29c0,0.727-0.205,1.48-1.764,0.992
				c-1.763-0.352-2.27,0.406-2.27,0.406l1.288,1.874c0,0,0.412-0.696,1.413-0.42c2.493,0.731,4.186-0.965,4.438-2.541
				c0.24,3.272-2.598,4.183-5.251,6.311c-0.719,0.576-1.091,1.22-1.253,1.853c1.24,0.499,2.589,0.783,4.007,0.783
				c2.309,0,4.442-0.733,6.196-1.97c-0.108-2.17,0.195-3.498,0.59-3.704c0.084-0.019,0.155-0.016,0.219-0.004
				C20.803,8.462,17.354,5.164,13.125,5.164z"/>
			<path fill-rule="evenodd" clip-rule="evenodd" fill="#FFF529" d="M20.445,13.395c0.011-0.041,0.021-0.081,0.033-0.119
				c0.024-0.08,0.049-0.154,0.076-0.219c0.024-0.061,0.05-0.11,0.076-0.158c0.021-0.037,0.04-0.079,0.062-0.108
				c0.051-0.072,0.104-0.128,0.159-0.157c0.085-0.019,0.155-0.016,0.219-0.004c-0.189-2.965-1.994-5.483-4.541-6.694
				c-0.077,0.671-0.121,1.353-0.121,2.044c0,0.571,0.036,1.132,0.085,1.689c0,0,0-0.001,0-0.001
				c0.028-0.102,0.051-0.205,0.067-0.307c0.021,0.291,0.01,0.557-0.015,0.813c0.294,2.527,1.092,4.897,2.288,7.012
				c0.497-0.247,0.974-0.53,1.424-0.848C20.191,15.022,20.276,14.025,20.445,13.395z"/>
			<g>
				<path fill-rule="evenodd" clip-rule="evenodd" fill="#FF2700" d="M7.458,7.55c0.237,0.361,0.557,0.731,0.971,0.996l0.005-0.003
					C8.021,8.279,7.696,7.911,7.458,7.55z"/>
				<path fill-rule="evenodd" clip-rule="evenodd" fill="#FF2700" d="M17.371,3.509c-0.007-0.014-0.016-0.026-0.023-0.04
					C17.354,3.483,17.364,3.495,17.371,3.509z"/>
				<path fill-rule="evenodd" clip-rule="evenodd" fill="#FF2700" d="M13.125,5.164c1.22,0,2.372,0.281,3.403,0.774
					c0.086-0.752,0.214-1.492,0.382-2.216c0.383,0.169,0.604,0.307,0.604,0.307s-3.312-2.085-6.805,0
					C7.218,6.113,6.913,6.441,6.913,6.441s0.17,0.536,0.545,1.107C8.903,6.081,10.905,5.164,13.125,5.164z"/>
				<path fill-rule="evenodd" clip-rule="evenodd" fill="#FF2700" d="M17.906,0c-1.001,0.118-3.465,0-6.175,2.27
					c0,0,3.993-0.66,5.345,0.804c0.286-1.059,0.661-2.079,1.119-3.055c0.723,0.018,1.383,0.104,1.994,0.241
					C19.492,0.105,18.748,0,17.906,0z"/>
				<path fill-rule="evenodd" clip-rule="evenodd" fill="#FF2700" d="M21.225,0.554c-0.272-0.098-0.557-0.183-0.855-0.256
					C20.667,0.372,20.953,0.456,21.225,0.554z"/>
				<path fill-rule="evenodd" clip-rule="evenodd" fill="#FF2700" d="M22.074,0.918l0.004-0.016c-0.251-0.126-0.53-0.228-0.808-0.33
					C21.551,0.675,21.82,0.79,22.074,0.918z"/>
			</g>
			<path fill-rule="evenodd" clip-rule="evenodd" fill="#FFF63B" d="M32.732,14.218c-0.146,0.395-0.266,0.798-0.349,1.21
				c0.279,0.476,0.468,1.075,0.495,1.852c0.178,5.019,4.467,2.644,4.467,2.644l-3.293-2.827
				C34.053,17.096,33.909,15.388,32.732,14.218z"/>
			<path fill-rule="evenodd" clip-rule="evenodd" fill="#AE781E" d="M29.703,21.691c-0.458-0.6-0.876-1.05-1.253-1.423
				c-0.357,0.048-0.706,0.12-1.046,0.214c2.506,2.112,2.25,3.352,1.402,4.056c-0.427,0.354-1.101,0.419-1.645,0.406
				c0.574,0.272,1.163,0.515,1.768,0.729c0.132-0.109,0.269-0.216,0.414-0.329C30.138,24.724,30.646,23.625,29.703,21.691z"/>
		</g>
		<g>
			<path fill="#9D9D9D" d="M0.57,47.717h1.139v7.95H0.57V47.717z"/>
			<path fill="#9D9D9D" d="M7.146,53.892c0,0.245-0.046,0.48-0.14,0.703c-0.093,0.223-0.221,0.419-0.385,0.586
				c-0.164,0.167-0.355,0.302-0.575,0.402c-0.22,0.101-0.457,0.151-0.709,0.151c-0.216,0-0.436-0.03-0.659-0.089
				c-0.224-0.06-0.425-0.162-0.603-0.307c-0.179-0.146-0.326-0.337-0.442-0.575c-0.115-0.238-0.173-0.54-0.173-0.905v-4.376
				c0-0.261,0.045-0.503,0.134-0.726c0.09-0.224,0.216-0.417,0.38-0.581c0.164-0.164,0.359-0.292,0.586-0.385
				c0.227-0.093,0.479-0.139,0.754-0.139c0.26,0,0.502,0.046,0.725,0.139s0.417,0.224,0.581,0.391
				c0.164,0.168,0.292,0.369,0.385,0.603c0.093,0.235,0.14,0.49,0.14,0.765v0.447H6.007v-0.38c0-0.223-0.063-0.417-0.19-0.581
				C5.69,48.872,5.52,48.79,5.303,48.79c-0.283,0-0.471,0.087-0.563,0.263c-0.093,0.175-0.14,0.396-0.14,0.664v4.064
				c0,0.231,0.051,0.425,0.151,0.581c0.101,0.156,0.281,0.234,0.542,0.234c0.075,0,0.154-0.013,0.24-0.039
				c0.085-0.025,0.163-0.068,0.234-0.128c0.07-0.06,0.128-0.142,0.173-0.246c0.044-0.104,0.067-0.235,0.067-0.391V53.4h1.139V53.892
				z"/>
			<path fill="#9D9D9D" d="M9.535,48.79H8.217v-1.072h3.773v1.072h-1.317v6.878H9.535V48.79z"/>
			<path fill="#9D9D9D" d="M16,47.717h1.708c0.313,0,0.588,0.042,0.827,0.123c0.238,0.082,0.454,0.228,0.647,0.436
				c0.194,0.209,0.328,0.452,0.402,0.731c0.075,0.28,0.112,0.658,0.112,1.134c0,0.349-0.021,0.649-0.061,0.898
				c-0.042,0.25-0.129,0.481-0.263,0.698c-0.156,0.261-0.364,0.463-0.625,0.608c-0.26,0.145-0.603,0.218-1.027,0.218h-0.581v3.104
				H16V47.717z M17.138,51.491h0.548c0.23,0,0.408-0.034,0.535-0.1c0.127-0.067,0.22-0.158,0.279-0.273
				c0.06-0.115,0.095-0.255,0.106-0.419c0.011-0.164,0.016-0.346,0.016-0.547c0-0.186-0.005-0.362-0.016-0.53
				c-0.012-0.167-0.045-0.312-0.101-0.435c-0.056-0.123-0.143-0.219-0.262-0.291c-0.12-0.07-0.291-0.106-0.513-0.106h-0.593V51.491z
				"/>
			<path fill="#9D9D9D" d="M21.258,47.717h1.831c1.34,0,2.01,0.778,2.01,2.333c0,0.462-0.073,0.858-0.218,1.19
				c-0.145,0.331-0.4,0.597-0.765,0.797l1.228,3.629h-1.206l-1.061-3.395h-0.681v3.395h-1.139V47.717z M22.397,51.268h0.647
				c0.201,0,0.361-0.027,0.481-0.084c0.119-0.055,0.209-0.136,0.273-0.24c0.062-0.104,0.105-0.232,0.128-0.385
				c0.021-0.152,0.033-0.329,0.033-0.53s-0.012-0.378-0.033-0.53c-0.023-0.153-0.069-0.283-0.14-0.391
				c-0.071-0.107-0.169-0.188-0.295-0.24c-0.127-0.052-0.294-0.079-0.502-0.079h-0.592V51.268z"/>
			<path fill="#9D9D9D" d="M26.662,49.594c0-0.32,0.056-0.603,0.167-0.849c0.112-0.246,0.259-0.448,0.441-0.608
				c0.183-0.16,0.387-0.281,0.615-0.363c0.227-0.082,0.456-0.123,0.686-0.123s0.459,0.041,0.687,0.123s0.432,0.203,0.615,0.363
				c0.182,0.16,0.329,0.362,0.44,0.608c0.112,0.246,0.167,0.529,0.167,0.849v4.197c0,0.328-0.056,0.612-0.167,0.854
				c-0.111,0.242-0.258,0.443-0.44,0.603c-0.183,0.16-0.388,0.281-0.615,0.363c-0.227,0.082-0.456,0.123-0.687,0.123
				s-0.459-0.041-0.686-0.123c-0.228-0.082-0.432-0.203-0.615-0.363c-0.182-0.16-0.329-0.361-0.441-0.603
				c-0.111-0.242-0.167-0.527-0.167-0.854V49.594z M27.801,53.791c0,0.276,0.076,0.479,0.229,0.609
				c0.152,0.13,0.333,0.195,0.541,0.195c0.208,0,0.39-0.064,0.542-0.195c0.153-0.131,0.229-0.333,0.229-0.609v-4.197
				c0-0.275-0.077-0.479-0.229-0.608c-0.152-0.13-0.333-0.196-0.542-0.196c-0.208,0-0.389,0.066-0.541,0.196
				c-0.153,0.129-0.229,0.333-0.229,0.608V53.791z"/>
			<path fill="#9D9D9D" d="M32.2,47.717h3.394v1.072h-2.255v2.412h1.965v1.072h-1.965v3.395H32.2V47.717z"/>
			<path fill="#9D9D9D" d="M37.045,47.717h3.394v1.072h-2.255v2.334h1.965v1.071h-1.965v2.333h2.255v1.139h-3.394V47.717z"/>
			<path fill="#9D9D9D" d="M45.575,50.006h-1.139V49.75c0-0.261-0.061-0.486-0.184-0.675c-0.123-0.19-0.33-0.285-0.62-0.285
				c-0.157,0-0.285,0.029-0.386,0.089c-0.1,0.06-0.179,0.136-0.234,0.229c-0.055,0.093-0.095,0.201-0.118,0.324
				c-0.021,0.123-0.033,0.251-0.033,0.385c0,0.157,0.006,0.289,0.017,0.397c0.011,0.108,0.039,0.201,0.083,0.279
				c0.045,0.078,0.11,0.147,0.196,0.206c0.085,0.06,0.202,0.119,0.352,0.179l0.871,0.346c0.252,0.097,0.457,0.21,0.614,0.341
				c0.156,0.13,0.277,0.283,0.363,0.458c0.086,0.175,0.144,0.375,0.173,0.603c0.03,0.228,0.044,0.486,0.044,0.776
				c0,0.335-0.034,0.646-0.1,0.933c-0.067,0.286-0.177,0.532-0.33,0.737s-0.355,0.367-0.608,0.486
				c-0.254,0.119-0.562,0.179-0.927,0.179c-0.275,0-0.533-0.048-0.771-0.145c-0.238-0.097-0.443-0.229-0.614-0.397
				c-0.171-0.167-0.307-0.366-0.407-0.597c-0.101-0.23-0.151-0.479-0.151-0.748v-0.425h1.139v0.357c0,0.208,0.062,0.396,0.185,0.564
				c0.123,0.167,0.329,0.251,0.62,0.251c0.193,0,0.344-0.027,0.452-0.083s0.19-0.134,0.246-0.235
				c0.055-0.101,0.09-0.225,0.105-0.374c0.015-0.148,0.022-0.312,0.022-0.491c0-0.208-0.007-0.38-0.022-0.514
				c-0.015-0.134-0.046-0.242-0.095-0.324c-0.048-0.082-0.115-0.148-0.201-0.201c-0.085-0.052-0.199-0.108-0.34-0.167l-0.815-0.334
				c-0.491-0.202-0.821-0.468-0.988-0.799c-0.168-0.331-0.252-0.746-0.252-1.245c0-0.298,0.042-0.581,0.124-0.849
				c0.082-0.268,0.203-0.5,0.363-0.692c0.159-0.194,0.362-0.348,0.608-0.464c0.246-0.115,0.532-0.172,0.86-0.172
				c0.282,0,0.541,0.052,0.775,0.157c0.234,0.104,0.436,0.241,0.603,0.413c0.167,0.171,0.296,0.363,0.385,0.575
				c0.09,0.211,0.134,0.43,0.134,0.652V50.006z"/>
			<path fill="#9D9D9D" d="M50.823,50.006h-1.139V49.75c0-0.261-0.061-0.486-0.184-0.675c-0.123-0.19-0.329-0.285-0.62-0.285
				c-0.156,0-0.285,0.029-0.385,0.089c-0.1,0.06-0.178,0.136-0.234,0.229c-0.056,0.093-0.095,0.201-0.117,0.324
				c-0.022,0.123-0.034,0.251-0.034,0.385c0,0.157,0.006,0.289,0.018,0.397c0.012,0.108,0.039,0.201,0.083,0.279
				c0.045,0.078,0.109,0.147,0.195,0.206c0.086,0.06,0.203,0.119,0.352,0.179l0.87,0.346c0.254,0.097,0.458,0.21,0.614,0.341
				c0.156,0.13,0.278,0.283,0.363,0.458c0.086,0.175,0.144,0.375,0.173,0.603c0.029,0.228,0.044,0.486,0.044,0.776
				c0,0.335-0.034,0.646-0.101,0.933c-0.067,0.286-0.177,0.532-0.33,0.737c-0.152,0.205-0.355,0.367-0.608,0.486
				c-0.253,0.119-0.562,0.179-0.927,0.179c-0.275,0-0.532-0.048-0.77-0.145c-0.238-0.097-0.443-0.229-0.614-0.397
				c-0.171-0.167-0.307-0.366-0.407-0.597c-0.101-0.23-0.151-0.479-0.151-0.748v-0.425h1.139v0.357c0,0.208,0.061,0.396,0.184,0.564
				c0.123,0.167,0.33,0.251,0.62,0.251c0.194,0,0.345-0.027,0.452-0.083c0.108-0.056,0.19-0.134,0.247-0.235
				c0.055-0.101,0.091-0.225,0.105-0.374c0.015-0.148,0.022-0.312,0.022-0.491c0-0.208-0.007-0.38-0.022-0.514
				c-0.015-0.134-0.047-0.242-0.095-0.324c-0.048-0.082-0.115-0.148-0.201-0.201c-0.086-0.052-0.2-0.108-0.34-0.167l-0.815-0.334
				c-0.491-0.202-0.82-0.468-0.988-0.799c-0.168-0.331-0.251-0.746-0.251-1.245c0-0.298,0.041-0.581,0.123-0.849
				c0.082-0.268,0.203-0.5,0.364-0.692c0.16-0.194,0.363-0.348,0.607-0.464c0.247-0.115,0.533-0.172,0.86-0.172
				c0.283,0,0.542,0.052,0.776,0.157c0.234,0.104,0.435,0.241,0.603,0.413c0.167,0.171,0.296,0.363,0.385,0.575
				c0.089,0.211,0.134,0.43,0.134,0.652V50.006z"/>
			<path fill="#9D9D9D" d="M52.419,47.717h1.138v7.95h-1.138V47.717z"/>
			<path fill="#9D9D9D" d="M55.311,49.594c0-0.32,0.056-0.603,0.167-0.849s0.259-0.448,0.441-0.608
				c0.182-0.16,0.387-0.281,0.614-0.363c0.227-0.082,0.456-0.123,0.687-0.123c0.23,0,0.459,0.041,0.687,0.123
				s0.432,0.203,0.614,0.363c0.182,0.16,0.329,0.362,0.44,0.608c0.112,0.246,0.168,0.529,0.168,0.849v4.197
				c0,0.328-0.056,0.612-0.168,0.854c-0.111,0.242-0.259,0.443-0.44,0.603c-0.183,0.16-0.387,0.281-0.614,0.363
				c-0.227,0.082-0.457,0.123-0.687,0.123c-0.231,0-0.46-0.041-0.687-0.123c-0.228-0.082-0.432-0.203-0.614-0.363
				c-0.182-0.16-0.329-0.361-0.441-0.603s-0.167-0.527-0.167-0.854V49.594z M56.45,53.791c0,0.276,0.076,0.479,0.228,0.609
				c0.152,0.13,0.333,0.195,0.542,0.195s0.389-0.064,0.542-0.195c0.152-0.131,0.229-0.333,0.229-0.609v-4.197
				c0-0.275-0.077-0.479-0.229-0.608c-0.153-0.13-0.333-0.196-0.542-0.196s-0.39,0.066-0.542,0.196
				c-0.152,0.129-0.228,0.333-0.228,0.608V53.791z"/>
			<path fill="#9D9D9D" d="M60.804,47.717h1.094l1.719,4.79h0.022v-4.79h1.139v7.95h-1.072l-1.741-4.778h-0.022v4.778h-1.139V47.717
				z"/>
			<path fill="#9D9D9D" d="M67.782,47.717h0.949l1.775,7.95h-1.139l-0.335-1.708H67.48l-0.334,1.708h-1.139L67.782,47.717z
				 M68.262,50.006H68.24l-0.558,2.88h1.139L68.262,50.006z"/>
			<path fill="#9D9D9D" d="M71.78,47.717h1.138v6.811h2.256v1.139H71.78V47.717z"/>
			<path fill="#9D9D9D" d="M80.31,50.006H79.17V49.75c0-0.261-0.062-0.486-0.185-0.675c-0.123-0.19-0.329-0.285-0.619-0.285
				c-0.156,0-0.285,0.029-0.385,0.089c-0.101,0.06-0.179,0.136-0.234,0.229c-0.056,0.093-0.095,0.201-0.117,0.324
				c-0.022,0.123-0.034,0.251-0.034,0.385c0,0.157,0.006,0.289,0.018,0.397c0.011,0.108,0.039,0.201,0.083,0.279
				c0.045,0.078,0.109,0.147,0.195,0.206c0.085,0.06,0.203,0.119,0.351,0.179l0.871,0.346c0.253,0.097,0.458,0.21,0.614,0.341
				c0.156,0.13,0.277,0.283,0.363,0.458c0.086,0.175,0.143,0.375,0.173,0.603c0.03,0.228,0.045,0.486,0.045,0.776
				c0,0.335-0.034,0.646-0.101,0.933c-0.066,0.286-0.177,0.532-0.329,0.737c-0.153,0.205-0.356,0.367-0.609,0.486
				c-0.252,0.119-0.562,0.179-0.927,0.179c-0.274,0-0.532-0.048-0.77-0.145c-0.238-0.097-0.443-0.229-0.614-0.397
				c-0.171-0.167-0.307-0.366-0.408-0.597c-0.1-0.23-0.151-0.479-0.151-0.748v-0.425h1.139v0.357c0,0.208,0.062,0.396,0.185,0.564
				c0.123,0.167,0.33,0.251,0.619,0.251c0.194,0,0.345-0.027,0.452-0.083c0.108-0.056,0.19-0.134,0.246-0.235
				c0.056-0.101,0.091-0.225,0.106-0.374c0.015-0.148,0.022-0.312,0.022-0.491c0-0.208-0.007-0.38-0.022-0.514
				c-0.016-0.134-0.047-0.242-0.095-0.324c-0.049-0.082-0.115-0.148-0.201-0.201c-0.086-0.052-0.2-0.108-0.341-0.167l-0.815-0.334
				c-0.491-0.202-0.821-0.468-0.988-0.799c-0.168-0.331-0.251-0.746-0.251-1.245c0-0.298,0.041-0.581,0.123-0.849
				c0.082-0.268,0.203-0.5,0.363-0.692c0.159-0.194,0.363-0.348,0.608-0.464c0.245-0.115,0.532-0.172,0.859-0.172
				c0.283,0,0.542,0.052,0.776,0.157c0.234,0.104,0.436,0.241,0.604,0.413c0.167,0.171,0.295,0.363,0.385,0.575
				c0.089,0.211,0.134,0.43,0.134,0.652V50.006z"/>
			<path fill="#9D9D9D" d="M81.928,47.717h0.893v1.965h-0.893V47.717z"/>
			<path fill="#9D9D9D" d="M88.716,47.717h0.949l1.776,7.95h-1.139l-0.335-1.708h-1.552l-0.334,1.708h-1.14L88.716,47.717z
				 M89.196,50.006h-0.022l-0.559,2.88h1.14L89.196,50.006z"/>
			<path fill="#9D9D9D" d="M96.398,50.006h-1.139V49.75c0-0.261-0.062-0.486-0.185-0.675c-0.123-0.19-0.329-0.285-0.62-0.285
				c-0.156,0-0.284,0.029-0.385,0.089c-0.1,0.06-0.178,0.136-0.234,0.229c-0.056,0.093-0.095,0.201-0.117,0.324
				c-0.023,0.123-0.034,0.251-0.034,0.385c0,0.157,0.006,0.289,0.017,0.397c0.011,0.108,0.039,0.201,0.083,0.279
				c0.045,0.078,0.11,0.147,0.196,0.206c0.085,0.06,0.203,0.119,0.352,0.179l0.871,0.346c0.253,0.097,0.458,0.21,0.614,0.341
				c0.156,0.13,0.277,0.283,0.363,0.458c0.085,0.175,0.143,0.375,0.172,0.603c0.03,0.228,0.045,0.486,0.045,0.776
				c0,0.335-0.034,0.646-0.101,0.933c-0.067,0.286-0.177,0.532-0.33,0.737s-0.355,0.367-0.608,0.486
				c-0.253,0.119-0.562,0.179-0.927,0.179c-0.276,0-0.532-0.048-0.771-0.145c-0.238-0.097-0.443-0.229-0.614-0.397
				c-0.171-0.167-0.307-0.366-0.408-0.597c-0.101-0.23-0.151-0.479-0.151-0.748v-0.425h1.139v0.357c0,0.208,0.062,0.396,0.185,0.564
				c0.122,0.167,0.329,0.251,0.619,0.251c0.193,0,0.344-0.027,0.452-0.083s0.19-0.134,0.246-0.235
				c0.056-0.101,0.092-0.225,0.106-0.374c0.015-0.148,0.022-0.312,0.022-0.491c0-0.208-0.008-0.38-0.022-0.514
				c-0.015-0.134-0.047-0.242-0.095-0.324c-0.048-0.082-0.115-0.148-0.201-0.201c-0.086-0.052-0.199-0.108-0.341-0.167l-0.815-0.334
				c-0.491-0.202-0.821-0.468-0.988-0.799c-0.167-0.331-0.25-0.746-0.25-1.245c0-0.298,0.04-0.581,0.123-0.849
				c0.082-0.268,0.203-0.5,0.362-0.692c0.16-0.194,0.362-0.348,0.609-0.464c0.246-0.115,0.532-0.172,0.859-0.172
				c0.283,0,0.542,0.052,0.776,0.157c0.234,0.104,0.435,0.241,0.603,0.413c0.167,0.171,0.296,0.363,0.385,0.575
				c0.089,0.211,0.134,0.43,0.134,0.652V50.006z"/>
			<path fill="#9D9D9D" d="M101.645,50.006h-1.139V49.75c0-0.261-0.061-0.486-0.184-0.675c-0.123-0.19-0.33-0.285-0.621-0.285
				c-0.157,0-0.284,0.029-0.385,0.089c-0.101,0.06-0.179,0.136-0.235,0.229c-0.056,0.093-0.095,0.201-0.117,0.324
				c-0.022,0.123-0.033,0.251-0.033,0.385c0,0.157,0.005,0.289,0.016,0.397c0.011,0.108,0.039,0.201,0.083,0.279
				c0.044,0.078,0.11,0.147,0.195,0.206c0.086,0.06,0.203,0.119,0.352,0.179l0.871,0.346c0.253,0.097,0.458,0.21,0.614,0.341
				c0.156,0.13,0.278,0.283,0.363,0.458c0.085,0.175,0.143,0.375,0.172,0.603c0.03,0.228,0.045,0.486,0.045,0.776
				c0,0.335-0.033,0.646-0.1,0.933c-0.067,0.286-0.177,0.532-0.33,0.737c-0.152,0.205-0.355,0.367-0.608,0.486
				c-0.253,0.119-0.562,0.179-0.927,0.179c-0.276,0-0.532-0.048-0.771-0.145c-0.238-0.097-0.443-0.229-0.614-0.397
				c-0.171-0.167-0.307-0.366-0.407-0.597c-0.101-0.23-0.151-0.479-0.151-0.748v-0.425h1.139v0.357c0,0.208,0.062,0.396,0.185,0.564
				c0.122,0.167,0.328,0.251,0.619,0.251c0.193,0,0.345-0.027,0.452-0.083c0.108-0.056,0.19-0.134,0.245-0.235
				c0.056-0.101,0.092-0.225,0.106-0.374c0.015-0.148,0.022-0.312,0.022-0.491c0-0.208-0.007-0.38-0.022-0.514
				c-0.015-0.134-0.047-0.242-0.095-0.324c-0.049-0.082-0.115-0.148-0.201-0.201c-0.085-0.052-0.199-0.108-0.34-0.167l-0.815-0.334
				c-0.491-0.202-0.82-0.468-0.988-0.799c-0.168-0.331-0.251-0.746-0.251-1.245c0-0.298,0.041-0.581,0.123-0.849
				c0.082-0.268,0.202-0.5,0.363-0.692c0.16-0.194,0.362-0.348,0.608-0.464c0.246-0.115,0.532-0.172,0.86-0.172
				c0.283,0,0.542,0.052,0.776,0.157c0.234,0.104,0.436,0.241,0.603,0.413c0.167,0.171,0.296,0.363,0.386,0.575
				c0.088,0.211,0.133,0.43,0.133,0.652V50.006z"/>
			<path fill="#9D9D9D" d="M103.141,49.594c0-0.32,0.056-0.603,0.167-0.849c0.112-0.246,0.258-0.448,0.441-0.608
				c0.183-0.16,0.388-0.281,0.614-0.363c0.227-0.082,0.456-0.123,0.687-0.123c0.23,0,0.459,0.041,0.687,0.123
				c0.227,0.082,0.431,0.203,0.614,0.363c0.182,0.16,0.329,0.362,0.441,0.608s0.167,0.529,0.167,0.849v4.197
				c0,0.328-0.056,0.612-0.167,0.854s-0.259,0.443-0.441,0.603c-0.183,0.16-0.387,0.281-0.614,0.363
				c-0.228,0.082-0.457,0.123-0.687,0.123c-0.231,0-0.46-0.041-0.687-0.123c-0.227-0.082-0.432-0.203-0.614-0.363
				c-0.183-0.16-0.329-0.361-0.441-0.603c-0.111-0.242-0.167-0.527-0.167-0.854V49.594z M104.28,53.791
				c0,0.276,0.077,0.479,0.229,0.609c0.153,0.13,0.333,0.195,0.542,0.195c0.208,0,0.389-0.064,0.542-0.195
				c0.152-0.131,0.229-0.333,0.229-0.609v-4.197c0-0.275-0.077-0.479-0.229-0.608c-0.153-0.13-0.333-0.196-0.542-0.196
				c-0.209,0-0.389,0.066-0.542,0.196c-0.152,0.129-0.229,0.333-0.229,0.608V53.791z"/>
			<path fill="#9D9D9D" d="M112.296,53.892c0,0.245-0.046,0.48-0.14,0.703c-0.093,0.223-0.221,0.419-0.385,0.586
				c-0.164,0.167-0.356,0.302-0.575,0.402c-0.22,0.101-0.456,0.151-0.709,0.151c-0.216,0-0.436-0.03-0.659-0.089
				c-0.223-0.06-0.424-0.162-0.603-0.307c-0.179-0.146-0.326-0.337-0.441-0.575c-0.115-0.238-0.172-0.54-0.172-0.905v-4.376
				c0-0.261,0.044-0.503,0.133-0.726c0.089-0.224,0.216-0.417,0.38-0.581c0.164-0.164,0.359-0.292,0.586-0.385
				s0.478-0.139,0.753-0.139c0.261,0,0.503,0.046,0.726,0.139c0.224,0.093,0.417,0.224,0.581,0.391
				c0.164,0.168,0.292,0.369,0.385,0.603c0.093,0.235,0.14,0.49,0.14,0.765v0.447h-1.138v-0.38c0-0.223-0.064-0.417-0.19-0.581
				c-0.127-0.164-0.298-0.246-0.514-0.246c-0.283,0-0.471,0.087-0.564,0.263c-0.092,0.175-0.139,0.396-0.139,0.664v4.064
				c0,0.231,0.05,0.425,0.15,0.581c0.1,0.156,0.281,0.234,0.541,0.234c0.075,0,0.155-0.013,0.241-0.039
				c0.086-0.025,0.164-0.068,0.234-0.128c0.071-0.06,0.128-0.142,0.173-0.246c0.045-0.104,0.067-0.235,0.067-0.391V53.4h1.138
				V53.892z"/>
			<path fill="#9D9D9D" d="M113.971,47.717h1.139v7.95h-1.139V47.717z"/>
			<path fill="#9D9D9D" d="M118.192,47.717h0.949l1.774,7.95h-1.139l-0.335-1.708h-1.551l-0.335,1.708h-1.139L118.192,47.717z
				 M118.672,50.006h-0.022l-0.558,2.88h1.139L118.672,50.006z"/>
			<path fill="#9D9D9D" d="M122.322,48.79h-1.317v-1.072h3.773v1.072h-1.317v6.878h-1.139V48.79z"/>
			<path fill="#9D9D9D" d="M126.029,47.717h1.139v7.95h-1.139V47.717z"/>
			<path fill="#9D9D9D" d="M128.921,49.594c0-0.32,0.056-0.603,0.168-0.849c0.111-0.246,0.258-0.448,0.44-0.608
				c0.183-0.16,0.388-0.281,0.614-0.363c0.227-0.082,0.456-0.123,0.687-0.123c0.231,0,0.459,0.041,0.687,0.123
				s0.432,0.203,0.614,0.363c0.183,0.16,0.33,0.362,0.441,0.608c0.111,0.246,0.167,0.529,0.167,0.849v4.197
				c0,0.328-0.056,0.612-0.167,0.854c-0.112,0.242-0.259,0.443-0.441,0.603c-0.183,0.16-0.387,0.281-0.614,0.363
				c-0.227,0.082-0.455,0.123-0.687,0.123c-0.23,0-0.459-0.041-0.687-0.123c-0.227-0.082-0.432-0.203-0.614-0.363
				c-0.182-0.16-0.33-0.361-0.44-0.603c-0.112-0.242-0.168-0.527-0.168-0.854V49.594z M130.06,53.791
				c0,0.276,0.076,0.479,0.229,0.609c0.152,0.13,0.333,0.195,0.541,0.195c0.208,0,0.389-0.064,0.542-0.195
				c0.153-0.131,0.229-0.333,0.229-0.609v-4.197c0-0.275-0.076-0.479-0.229-0.608c-0.152-0.13-0.333-0.196-0.542-0.196
				c-0.208,0-0.389,0.066-0.541,0.196c-0.153,0.129-0.229,0.333-0.229,0.608V53.791z"/>
		</g>
		<g>
			<path fill="#9D9D9D" d="M134.438,47.718h1.094l1.719,4.79h0.022v-4.79h1.139v7.95h-1.072l-1.742-4.779h-0.022v4.779h-1.139
				V47.718z"/>
		</g>
		<g>
			<path d="M58.943,20.715v13.792c0,3-0.85,5.322-2.547,6.967c-1.699,1.646-4.146,2.469-7.344,2.469c-3.124,0-5.525-0.8-7.202-2.398
				c-1.677-1.598-2.516-3.897-2.516-6.896V20.715h6.223v13.448c0,1.62,0.302,2.795,0.909,3.526c0.606,0.731,1.499,1.098,2.68,1.098
				c1.264,0,2.181-0.364,2.751-1.09c0.569-0.727,0.854-1.915,0.854-3.565V20.715H58.943z"/>
			<path d="M86.6,43.63h-8.12l-8.369-16.144H69.97c0.199,2.539,0.298,4.477,0.298,5.814V43.63h-5.486V20.715h8.088l8.338,15.924
				h0.094c-0.147-2.309-0.22-4.164-0.22-5.563v-10.36H86.6V43.63z"/>
		</g>
		<g>
			<path fill="#00AFFF" d="M92.619,43.63V20.715h6.223V43.63H92.619z"/>
			<path fill="#00AFFF" d="M114.931,43.63h-6.191V25.777h-5.596v-5.062h17.367v5.062h-5.58V43.63z"/>
		</g>
		<g>
			<path d="M138.458,43.63h-13.604V20.715h13.604v4.968h-7.414v3.605h6.865v4.969h-6.865v4.326h7.414V43.63z"/>
		</g>
		<g>
			<defs>
				<path id="SVGID_1_" d="M47.219,24.494c1.09-1.09,2.857-1.089,3.947,0l5.121,5.121c1.09,1.09,1.09,2.857,0,3.946l-5.121,5.121
					c-1.09,1.09-2.857,1.089-3.947,0l-5.121-5.121c-1.09-1.09-1.089-2.856,0-3.946L47.219,24.494z"/>
			</defs>
			<clipPath id="SVGID_2_">
				<use xlink:href="#SVGID_1_"  overflow="visible"/>
			</clipPath>
			<g clip-path="url(#SVGID_2_)">
				<defs>
					<rect id="SVGID_3_" y="-0.158" width="138.517" height="56"/>
				</defs>
				<clipPath id="SVGID_4_">
					<use xlink:href="#SVGID_3_"  overflow="visible"/>
				</clipPath>
				
					<rect x="41.908" y="24.305" transform="matrix(-0.7071 -0.7071 0.7071 -0.7071 61.6406 88.7088)" clip-path="url(#SVGID_4_)" fill="#FFFFFF" width="14.568" height="14.568"/>
			</g>
		</g>
		<g>
			<defs>
				<path id="SVGID_5_" d="M49.174,25.475c0.118,0.118,0.118,0.31,0.001,0.426c-0.117,0.118-0.308,0.117-0.426-0.001
					c-0.118-0.119-0.119-0.31-0.001-0.427C48.864,25.356,49.056,25.356,49.174,25.475z M48.521,26.127
					c0.089,0.088,0.184,0.14,0.302,0.169c0.075,0.412,0.315,1.825,0.367,2.037c0.045,0.192,0.082,0.361,0.23,0.523
					c0.074,0.074,0.229,0.244,0.479,0.494c-0.051,0.154-0.013,0.338,0.112,0.464c0.177,0.177,0.471,0.178,0.646,0.002
					c0.176-0.176,0.175-0.47-0.001-0.646c-0.155-0.155-0.397-0.179-0.573-0.061c-0.229-0.229-0.384-0.384-0.443-0.458
					c-0.096-0.096-0.119-0.191-0.156-0.375c-0.045-0.191-0.27-1.529-0.352-1.978c0.088-0.029,0.184-0.081,0.256-0.154
					c0.242-0.242,0.233-0.631-0.003-0.867c-0.235-0.236-0.632-0.238-0.867-0.003S48.278,25.883,48.521,26.127z"/>
			</defs>
			<clipPath id="SVGID_6_">
				<use xlink:href="#SVGID_5_"  overflow="visible"/>
			</clipPath>
			<g clip-path="url(#SVGID_6_)">
				<defs>
					<rect id="SVGID_7_" y="-0.158" width="138.517" height="56"/>
				</defs>
				<clipPath id="SVGID_8_">
					<use xlink:href="#SVGID_7_"  overflow="visible"/>
				</clipPath>
				
					<rect x="46.409" y="25.235" transform="matrix(-0.7071 -0.7071 0.7071 -0.7071 65.3087 82.0322)" clip-path="url(#SVGID_8_)" width="6.47" height="4.51"/>
			</g>
		</g>
		<g>
			<defs>
				<path id="SVGID_9_" d="M46.455,27.795c0.117-0.118,0.309-0.117,0.426,0.001c0.118,0.119,0.119,0.309,0.002,0.426
					c-0.118,0.117-0.31,0.117-0.427-0.001C46.331,28.111,46.337,27.913,46.455,27.795z M46.979,28.539l0.649,0.649
					c-0.08,0.169-0.05,0.375,0.089,0.515c0.178,0.177,0.472,0.179,0.647,0.003c0.176-0.176,0.175-0.47-0.001-0.647
					c-0.141-0.14-0.346-0.17-0.515-0.09l-0.649-0.649c0.131-0.235,0.101-0.543-0.098-0.742c-0.244-0.244-0.633-0.238-0.868-0.003
					C46,27.809,46,28.205,46.236,28.441C46.436,28.655,46.745,28.686,46.979,28.539z"/>
			</defs>
			<clipPath id="SVGID_10_">
				<use xlink:href="#SVGID_9_"  overflow="visible"/>
			</clipPath>
			<g clip-path="url(#SVGID_10_)">
				<defs>
					<rect id="SVGID_11_" y="-0.158" width="138.517" height="56"/>
				</defs>
				<clipPath id="SVGID_12_">
					<use xlink:href="#SVGID_11_"  overflow="visible"/>
				</clipPath>
				
					<rect x="44.92" y="27.156" transform="matrix(-0.7071 -0.7071 0.7071 -0.7071 60.494 82.3358)" clip-path="url(#SVGID_12_)" width="4.759" height="2.967"/>
			</g>
		</g>
		<g>
			<defs>
				<path id="SVGID_13_" d="M46.57,29.141c0.118,0.118,0.118,0.309,0.001,0.426c-0.118,0.117-0.308,0.117-0.427-0.001
					c-0.117-0.118-0.118-0.309-0.001-0.426C46.26,29.021,46.452,29.023,46.57,29.141z M45.918,29.792
					c0.199,0.199,0.516,0.237,0.743,0.099l0.132,0.133c-0.08,0.168-0.049,0.375,0.091,0.515c0.176,0.177,0.47,0.177,0.646,0.001
					c0.176-0.175,0.175-0.469-0.002-0.646c-0.14-0.14-0.346-0.17-0.515-0.09l-0.133-0.133c0.132-0.235,0.102-0.543-0.098-0.743
					c-0.244-0.243-0.633-0.238-0.867-0.003C45.681,29.16,45.674,29.549,45.918,29.792z"/>
			</defs>
			<clipPath id="SVGID_14_">
				<use xlink:href="#SVGID_13_"  overflow="visible"/>
			</clipPath>
			<g clip-path="url(#SVGID_14_)">
				<defs>
					<rect id="SVGID_15_" y="-0.158" width="138.517" height="56"/>
				</defs>
				<clipPath id="SVGID_16_">
					<use xlink:href="#SVGID_15_"  overflow="visible"/>
				</clipPath>
				
					<rect x="44.709" y="28.249" transform="matrix(-0.707 -0.7072 0.7072 -0.707 58.7275 83.797)" clip-path="url(#SVGID_16_)" width="4.029" height="2.967"/>
			</g>
		</g>
		<g>
			<defs>
				<path id="SVGID_17_" d="M43.058,31.561c-0.118-0.118-0.119-0.309-0.001-0.426c0.118-0.118,0.308-0.117,0.426,0
					c0.118,0.119,0.119,0.31,0.001,0.427C43.374,31.688,43.175,31.679,43.058,31.561z M43.813,31.057l0.754-0.754
					c0.344-0.344,0.536-0.3,0.734-0.101c0.244,0.244,0.517,0.517,0.627,0.642c-0.08,0.169-0.05,0.375,0.098,0.522
					c0.177,0.177,0.471,0.178,0.647,0.002s0.174-0.47-0.002-0.647c-0.14-0.139-0.347-0.17-0.515-0.09
					c-0.126-0.125-0.391-0.405-0.627-0.642c-0.545-0.546-1.022-0.069-1.183,0.091l-0.747,0.747c-0.236-0.147-0.56-0.119-0.764,0.086
					c-0.242,0.242-0.233,0.631,0.003,0.867s0.633,0.237,0.867,0.003C43.911,31.593,43.946,31.292,43.813,31.057z"/>
			</defs>
			<clipPath id="SVGID_18_">
				<use xlink:href="#SVGID_17_"  overflow="visible"/>
			</clipPath>
			<g clip-path="url(#SVGID_18_)">
				<defs>
					<rect id="SVGID_19_" y="-0.158" width="138.517" height="56"/>
				</defs>
				<clipPath id="SVGID_20_">
					<use xlink:href="#SVGID_19_"  overflow="visible"/>
				</clipPath>
				
					<rect x="42.309" y="28.594" transform="matrix(-0.7071 -0.7071 0.7071 -0.7071 54.247 84.8619)" clip-path="url(#SVGID_20_)" width="4.78" height="5.205"/>
			</g>
		</g>
		<g>
			<defs>
				<path id="SVGID_21_" d="M49.106,37.609c-0.118-0.118-0.119-0.309-0.001-0.426c0.117-0.117,0.308-0.116,0.425,0.001
					c0.119,0.119,0.119,0.309,0.002,0.427C49.415,37.728,49.224,37.727,49.106,37.609z M49.839,37.068l0.748-0.748
					c0.154-0.153,0.637-0.636,0.099-1.175c-0.243-0.243-0.517-0.516-0.642-0.627c0.081-0.169,0.05-0.375-0.09-0.515
					c-0.177-0.177-0.471-0.178-0.646-0.002s-0.175,0.47,0.002,0.647c0.14,0.14,0.346,0.17,0.522,0.097
					c0.126,0.125,0.406,0.391,0.642,0.626c0.199,0.2,0.251,0.383-0.101,0.735l-0.754,0.754c-0.236-0.134-0.537-0.097-0.735,0.101
					c-0.241,0.241-0.233,0.631,0.003,0.867c0.236,0.236,0.633,0.237,0.867,0.002C49.958,37.627,49.987,37.303,49.839,37.068z"/>
			</defs>
			<clipPath id="SVGID_22_">
				<use xlink:href="#SVGID_21_"  overflow="visible"/>
			</clipPath>
			<g clip-path="url(#SVGID_22_)">
				<defs>
					<rect id="SVGID_23_" y="-0.158" width="138.517" height="56"/>
				</defs>
				<clipPath id="SVGID_24_">
					<use xlink:href="#SVGID_23_"  overflow="visible"/>
				</clipPath>
				
					<rect x="47.09" y="33.37" transform="matrix(-0.7072 -0.7071 0.7071 -0.7072 59.0272 96.3912)" clip-path="url(#SVGID_24_)" width="4.77" height="5.204"/>
			</g>
		</g>
		<g>
			<defs>
				<path id="SVGID_25_" d="M54.824,31.272c0.103-0.103,0.265-0.103,0.368,0c0.103,0.104,0.104,0.265,0.001,0.368
					c-0.103,0.102-0.265,0.102-0.368-0.001C54.729,31.543,54.721,31.375,54.824,31.272z M51.016,33
					c0.125,0.125,0.309,0.163,0.463,0.112l0.539,0.539c0.502,0.501,0.941,0.062,1.087-0.084l1.619-1.619
					c0.221,0.133,0.515,0.105,0.705-0.085c0.22-0.22,0.219-0.588-0.003-0.809c-0.221-0.221-0.589-0.223-0.808-0.002
					c-0.184,0.183-0.219,0.455-0.102,0.675l-1.625,1.625c-0.308,0.308-0.462,0.271-0.647,0.087l-0.509-0.509
					c0.117-0.176,0.094-0.418-0.061-0.574c-0.176-0.177-0.47-0.178-0.646-0.002C50.83,32.522,50.831,32.816,51.016,33z"/>
			</defs>
			<clipPath id="SVGID_26_">
				<use xlink:href="#SVGID_25_"  overflow="visible"/>
			</clipPath>
			<g clip-path="url(#SVGID_26_)">
				<defs>
					<rect id="SVGID_27_" y="-0.158" width="138.517" height="56"/>
				</defs>
				<clipPath id="SVGID_28_">
					<use xlink:href="#SVGID_27_"  overflow="visible"/>
				</clipPath>
				
					<rect x="51.009" y="28.95" transform="matrix(-0.7071 -0.7072 0.7072 -0.7071 68.2458 92.412)" clip-path="url(#SVGID_28_)" width="4.51" height="6.24"/>
			</g>
		</g>
		<g>
			<defs>
				<path id="SVGID_29_" d="M52.197,34.827c0.119,0.118,0.12,0.31,0.002,0.427c-0.117,0.117-0.308,0.116-0.427-0.001
					c-0.118-0.119-0.118-0.31,0-0.427C51.881,34.701,52.08,34.709,52.197,34.827z M50.136,33.835c0.14,0.14,0.346,0.17,0.515,0.09
					l0.797,0.797c-0.132,0.234-0.101,0.543,0.099,0.743c0.243,0.244,0.632,0.238,0.867,0.003c0.242-0.242,0.233-0.63-0.003-0.867
					c-0.199-0.199-0.516-0.237-0.743-0.098l-0.789-0.789c0.08-0.169,0.05-0.375-0.09-0.516c-0.177-0.177-0.471-0.178-0.646-0.002
					S49.959,33.658,50.136,33.835z"/>
			</defs>
			<clipPath id="SVGID_30_">
				<use xlink:href="#SVGID_29_"  overflow="visible"/>
			</clipPath>
			<g clip-path="url(#SVGID_30_)">
				<defs>
					<rect id="SVGID_31_" y="-0.158" width="138.517" height="56"/>
				</defs>
				<clipPath id="SVGID_32_">
					<use xlink:href="#SVGID_31_"  overflow="visible"/>
				</clipPath>
				
					<rect x="48.798" y="32.848" transform="matrix(-0.7071 -0.7071 0.7071 -0.7071 63.2594 94.866)" clip-path="url(#SVGID_32_)" width="4.958" height="2.967"/>
			</g>
		</g>
		<g>
			<defs>
				<path id="SVGID_33_" d="M49.623,29.879c-0.258-0.258-0.669-0.26-0.926-0.003l-1.875,1.875c-0.257,0.256-0.255,0.668,0.003,0.926
					l1.195,1.195c0.259,0.258,0.67,0.259,0.926,0.003L50.821,32c0.256-0.257,0.255-0.668-0.003-0.926L49.623,29.879z"/>
			</defs>
			<clipPath id="SVGID_34_">
				<use xlink:href="#SVGID_33_"  overflow="visible"/>
			</clipPath>
			<g clip-path="url(#SVGID_34_)">
				<defs>
					<rect id="SVGID_35_" y="-0.158" width="138.517" height="56"/>
				</defs>
				<clipPath id="SVGID_36_">
					<use xlink:href="#SVGID_35_"  overflow="visible"/>
				</clipPath>
				
					<rect x="46.447" y="29.025" transform="matrix(-0.7071 -0.7072 0.7072 -0.7071 60.8 88.9378)" clip-path="url(#SVGID_36_)" width="4.748" height="5.701"/>
			</g>
		</g>
		<g>
			<defs>
				<path id="SVGID_37_" d="M50.975,27.598c0.118,0.118,0.118,0.31,0.001,0.426c-0.117,0.118-0.309,0.117-0.427-0.001
					c-0.118-0.118-0.119-0.31-0.001-0.426C50.658,27.487,50.856,27.479,50.975,27.598z M50.322,28.25
					c0.199,0.199,0.501,0.236,0.735,0.105l0.738,0.737c0.081,0.082,0.154,0.155,0.155,0.214c0,0.029-0.015,0.088-0.11,0.183
					c-0.132,0.132-0.308,0.308-0.454,0.439c-0.169-0.067-0.369-0.045-0.507,0.094c-0.176,0.176-0.174,0.47,0.002,0.647
					c0.178,0.177,0.472,0.178,0.647,0.002c0.146-0.147,0.168-0.359,0.079-0.537c0.139-0.14,0.315-0.3,0.446-0.433
					c0.139-0.138,0.212-0.271,0.205-0.396c0-0.191-0.133-0.309-0.252-0.427l-0.729-0.73c0.146-0.235,0.108-0.551-0.098-0.758
					c-0.244-0.243-0.633-0.238-0.868-0.003C50.085,27.616,50.079,28.006,50.322,28.25z"/>
			</defs>
			<clipPath id="SVGID_38_">
				<use xlink:href="#SVGID_37_"  overflow="visible"/>
			</clipPath>
			<g clip-path="url(#SVGID_38_)">
				<defs>
					<rect id="SVGID_39_" y="-0.158" width="138.517" height="56"/>
				</defs>
				<clipPath id="SVGID_40_">
					<use xlink:href="#SVGID_39_"  overflow="visible"/>
				</clipPath>
				
					<rect x="48.513" y="26.84" transform="matrix(-0.7071 -0.7071 0.7071 -0.7071 66.5316 85.5104)" clip-path="url(#SVGID_40_)" width="4.926" height="4.272"/>
			</g>
		</g>
		<g>
			<defs>
				<path id="SVGID_41_" d="M44.275,32.999c-0.117,0.118-0.309,0.116-0.427-0.002c-0.118-0.118-0.118-0.31-0.001-0.426
					c0.117-0.117,0.309-0.117,0.426,0.002C44.392,32.69,44.4,32.875,44.275,32.999z M46.746,33.081
					c-0.133-0.133-0.332-0.17-0.486-0.105l-0.819-0.818c-0.154-0.155-0.479-0.479-0.912-0.047l-0.147,0.146
					c-0.235-0.147-0.551-0.112-0.749,0.086c-0.242,0.241-0.233,0.631,0.003,0.867c0.236,0.236,0.633,0.238,0.867,0.003
					c0.197-0.198,0.234-0.5,0.1-0.735c0.044-0.044,0.088-0.103,0.14-0.154c0.198-0.197,0.279-0.146,0.47,0.046l0.804,0.804
					c-0.102,0.176-0.072,0.396,0.076,0.544c0.177,0.176,0.471,0.177,0.646,0.002C46.923,33.552,46.922,33.258,46.746,33.081z"/>
			</defs>
			<clipPath id="SVGID_42_">
				<use xlink:href="#SVGID_41_"  overflow="visible"/>
			</clipPath>
			<g clip-path="url(#SVGID_42_)">
				<defs>
					<rect id="SVGID_43_" y="-0.158" width="138.517" height="56"/>
				</defs>
				<clipPath id="SVGID_44_">
					<use xlink:href="#SVGID_43_"  overflow="visible"/>
				</clipPath>
				
					<rect x="42.674" y="31.069" transform="matrix(-0.7072 -0.7071 0.7071 -0.7072 53.6534 88.3951)" clip-path="url(#SVGID_44_)" width="4.916" height="4.034"/>
			</g>
		</g>
		<g>
			<defs>
				<path id="SVGID_45_" d="M47.331,36.479c-0.118-0.119-0.119-0.31-0.001-0.427c0.117-0.117,0.315-0.124,0.434-0.006
					s0.119,0.309,0.001,0.426C47.647,36.59,47.448,36.597,47.331,36.479z M48.071,35.944l0.147-0.146
					c0.432-0.432,0.107-0.757-0.048-0.912l-0.45-0.45c0.066-0.169,0.028-0.353-0.105-0.486c-0.177-0.177-0.471-0.178-0.646-0.002
					c-0.176,0.176-0.175,0.47,0.002,0.647c0.147,0.147,0.375,0.17,0.544,0.076l0.435,0.435c0.192,0.191,0.244,0.272,0.046,0.47
					c-0.051,0.051-0.103,0.103-0.154,0.14c-0.235-0.134-0.536-0.098-0.735,0.1c-0.241,0.241-0.232,0.631,0.003,0.867
					c0.243,0.243,0.633,0.237,0.868,0.003C48.184,36.496,48.219,36.18,48.071,35.944z"/>
			</defs>
			<clipPath id="SVGID_46_">
				<use xlink:href="#SVGID_45_"  overflow="visible"/>
			</clipPath>
			<g clip-path="url(#SVGID_46_)">
				<defs>
					<rect id="SVGID_47_" y="-0.158" width="138.517" height="56"/>
				</defs>
				<clipPath id="SVGID_48_">
					<use xlink:href="#SVGID_47_"  overflow="visible"/>
				</clipPath>
				
					<rect x="45.222" y="33.356" transform="matrix(-0.707 -0.7072 0.7072 -0.707 55.9275 93.9172)" clip-path="url(#SVGID_48_)" width="4.394" height="4.033"/>
			</g>
		</g>
	</g>
</g>
<g id="Layer_2" display="none">
	<g display="inline">
		<defs>
			<ellipse id="SVGID_49_" cx="35.158" cy="7.98" rx="18.751" ry="18.777"/>
		</defs>
		<clipPath id="SVGID_50_">
			<use xlink:href="#SVGID_49_"  overflow="visible"/>
		</clipPath>
		<g clip-path="url(#SVGID_50_)">
			<defs>
				<rect id="SVGID_51_" x="16.398" y="-0.158" width="21.108" height="27.041"/>
			</defs>
			<clipPath id="SVGID_52_">
				<use xlink:href="#SVGID_51_"  overflow="visible"/>
			</clipPath>
			<rect x="15.535" y="-11.669" clip-path="url(#SVGID_52_)" fill="#FFFE00" width="39.246" height="39.299"/>
		</g>
	</g>
	<rect x="16.398" y="-0.158" display="inline" fill="none" width="21.108" height="27.041"/>
	<rect y="-0.158" display="inline" fill="none" width="37.507" height="44.312"/>
	<rect y="-0.158" display="inline" fill="none" width="37.507" height="44.312"/>
	<path display="inline" fill-rule="evenodd" clip-rule="evenodd" fill="#00A99D" d="M12.116,14.743c0,0-3.191,2.306-2.363,2.667
		c1.32,0.578,2.778,0.897,4.311,0.897c5.955,0,10.781-4.834,10.781-10.797c0-5.962-4.826-10.796-10.781-10.796
		c-5.072,0-9.326,3.507-10.477,8.231c-0.2,0.822-0.306,1.681-0.306,2.565C5.813,5.74,12.116,14.743,12.116,14.743z"/>
	
		<ellipse display="inline" fill-rule="evenodd" clip-rule="evenodd" fill="#534741" cx="10.781" cy="38.023" rx="10.781" ry="10.797"/>
	<g display="inline" opacity="0.4859" enable-background="new    ">
		<g>
			<defs>
				<rect id="SVGID_53_" x="21.458" y="20.078" width="16.049" height="16.225"/>
			</defs>
			<clipPath id="SVGID_54_">
				<use xlink:href="#SVGID_53_"  overflow="visible"/>
			</clipPath>
			<g clip-path="url(#SVGID_54_)">
				<defs>
					<ellipse id="SVGID_55_" cx="29.533" cy="28.166" rx="7.969" ry="7.98"/>
				</defs>
				<clipPath id="SVGID_56_">
					<use xlink:href="#SVGID_55_"  overflow="visible"/>
				</clipPath>
				<g clip-path="url(#SVGID_56_)">
					<defs>
						<rect id="SVGID_57_" x="21.458" y="19.904" width="16.049" height="16.399"/>
					</defs>
					<clipPath id="SVGID_58_">
						<use xlink:href="#SVGID_57_"  overflow="visible"/>
					</clipPath>
					<rect x="20.691" y="19.313" clip-path="url(#SVGID_58_)" fill="#582626" width="17.683" height="17.705"/>
				</g>
			</g>
		</g>
	</g>
	<rect x="-4.69" y="-0.158" display="inline" fill="none" width="37.507" height="44.312"/>
	<path display="inline" fill-rule="evenodd" clip-rule="evenodd" fill="#006837" d="M10.618,13.764
		c-0.119,0.782,1.187,0.185,0.882,1.036c-0.228,0.632-0.901,1.101-1.292,1.896c-0.481,0.977-0.314,2.26-0.26,3.036
		c0.03,0.434-0.323,0.592,0,0.732c0.974,0.425,2.047,0.66,3.177,0.66c4.401,0,7.97-3.573,7.97-7.98c0-4.408-3.568-7.98-7.97-7.98
		c-2.354,0-4.472,1.023-5.931,2.65c-1.267,1.413,1.799,1.873,1.799,3.922C8.993,12.691,10.772,12.746,10.618,13.764z"/>
	<path display="inline" fill-rule="evenodd" clip-rule="evenodd" fill="#C7B299" d="M41.963,15.116
		c-0.326-0.721-1.097,0.491-1.304-0.389c-0.154-0.654,0.155-1.414,0.051-2.293c-0.129-1.082-0.968-2.067-1.437-2.688
		c-0.262-0.348-0.052-0.672-0.398-0.614c-1.048,0.174-2.077,0.562-3.024,1.177c-3.691,2.397-4.737,7.337-2.337,11.033
		s7.339,4.75,11.029,2.352c1.976-1.283,3.194-3.293,3.531-5.452c0.294-1.875-2.528-0.592-3.645-2.31
		C43.91,15.13,42.388,16.054,41.963,15.116z"/>
	<rect y="-0.158" display="inline" fill="none" width="138.517" height="56"/>
</g>
</svg>
