<?xml version="1.0" encoding="utf-8"?>
<!-- Generator: Adobe Illustrator 16.0.0, SVG Export Plug-In . SVG Version: 6.00 Build 0)  -->
<!DOCTYPE svg PUBLIC "-//W3C//DTD SVG 1.1//EN" "http://www.w3.org/Graphics/SVG/1.1/DTD/svg11.dtd">
<svg version="1.1" id="Layer_1" xmlns="http://www.w3.org/2000/svg" xmlns:xlink="http://www.w3.org/1999/xlink" x="0px" y="0px"
	 width="37px" height="37px" viewBox="0 0 37 37" enable-background="new 0 0 37 37" xml:space="preserve">
<g>
	<path fill="none" stroke="#0071bc" stroke-miterlimit="10" d="M36.5,18.5c0,9.9-8.1,18-18,18c-9.9,0-18-8.1-18-18
		c0-9.9,8.1-18,18-18C28.4,0.5,36.5,8.6,36.5,18.5z"/>
	<path fill="#0071bc" d="M27.9,11.7c0,0-0.4-1.1-2.9-1.5c-1.5-0.2-3.7,0.3-4.8,2.6c-0.7,1.6-0.4,2.8-0.4,2.8s-2.3,0.7-5.6-1.2
		C11.8,13,10,10.6,10,10.6s-0.1,2.4,0.6,4.5c0.8,2.1,1.8,2.7,1.8,2.7l-2.8-1.1c0,0,0.3,1.6,1.5,2.7c1.1,1.1,2.9,2,2.9,2L10.9,21
		c0,0,0.8,1.7,2.4,2.4c1.4,0.7,2.5,0.9,2.5,0.9s-0.4,0.8-2.1,1.3c-1.3,0.4-3.8,0.6-3.8,0.6s6.9,4.4,14.7-0.7
		c5.5-3.6,4.7-11.3,4.7-11.3l1.8-1.4l-2-0.1l1.5-1.6L27.9,11.7z"/>
</g>
<rect id="_x3C_Slice_x3E__3_" x="-1" y="-0.7" fill="none" width="38" height="38"/>
</svg>
