<?xml version="1.0" encoding="utf-8"?>
<!-- Generator: Adobe Illustrator 16.0.4, SVG Export Plug-In . SVG Version: 6.00 Build 0)  -->
<!DOCTYPE svg PUBLIC "-//W3C//DTD SVG 1.1//EN" "http://www.w3.org/Graphics/SVG/1.1/DTD/svg11.dtd">
<svg version="1.1" id="Layer_1" xmlns="http://www.w3.org/2000/svg" xmlns:xlink="http://www.w3.org/1999/xlink" x="0px" y="0px"
	 width="31.3px" height="31.3px" viewBox="0 0 31.3 31.3" enable-background="new 0 0 31.3 31.3" xml:space="preserve">
<g>
	<g>
		<g>
			<path fill="#0071BC" d="M21.3,19.701c-0.2,0-0.301,0-0.4,0.1S20.8,20,20.8,20.3v0.5h0.9v-0.5c0-0.2,0-0.4-0.101-0.5
				S21.4,19.701,21.3,19.701z"/>
			<path fill="#0071BC" d="M17.701,19.701c-0.101,0-0.101,0-0.201,0.1c-0.1,0-0.1,0.1-0.199,0.199V23.3
				c0.1,0.1,0.199,0.1,0.199,0.199c0.101,0,0.201,0.101,0.301,0.101s0.199,0,0.3-0.101c0.101-0.1,0.101-0.199,0.101-0.399v-2.7
				c0-0.199,0-0.3-0.101-0.4C18,19.701,17.9,19.701,17.701,19.701z"/>
			<path fill="#0071BC" d="M23.6,15.6c-0.8-0.8-8-0.9-8-0.9s-7.1,0-8,0.9c-0.9,0.8-0.9,5-0.9,5.101c0,0,0,4.199,0.9,5.1
				c0.9,0.8,8,0.9,8,0.9s7.101,0,8-0.9s0.899-5.1,0.899-5.1C24.5,20.6,24.5,16.4,23.6,15.6z M12.1,18.1h-1.2v6.101H9.7V18.1H8.5v-1
				h3.6V18.1z M15.5,24.1h-1V23.5c-0.2,0.201-0.4,0.4-0.6,0.5c-0.2,0.101-0.4,0.201-0.6,0.201c-0.2,0-0.4-0.101-0.5-0.201
				C12.7,23.8,12.6,23.6,12.6,23.3v-4.4h1v4c0,0.1,0,0.2,0.1,0.301c0,0.1,0.1,0.1,0.2,0.1s0.2,0,0.3-0.1
				C14.3,23.1,14.4,23,14.5,22.9v-4h1V24.1z M19.201,23.1C19.201,23.5,19.1,23.8,19,24C18.8,24.201,18.6,24.3,18.3,24.3
				c-0.2,0-0.4,0-0.5-0.1C17.6,24.1,17.5,24,17.4,23.8v0.4h-1V17h1V19.3c0.1-0.2,0.301-0.301,0.4-0.4c0.199-0.1,0.3-0.1,0.5-0.1
				c0.3,0,0.6,0.1,0.699,0.3c0.201,0.2,0.301,0.601,0.301,1v3H19.201z M22.8,21.6h-2v1c0,0.3,0,0.5,0.1,0.601
				c0.1,0.1,0.2,0.199,0.4,0.199c0.199,0,0.3,0,0.4-0.1c0.1-0.1,0.1-0.301,0.1-0.6V22.5h1.1V22.8c0,0.5-0.1,0.9-0.4,1.199
				c-0.299,0.301-0.6,0.4-1.199,0.4c-0.5,0-0.801-0.1-1.1-0.4C19.9,23.701,19.8,23.3,19.8,22.8v-2.4c0-0.5,0.1-0.8,0.4-1.1
				C20.5,19,20.9,18.9,21.3,18.9c0.5,0,0.8,0.1,1.1,0.4c0.301,0.3,0.4,0.6,0.4,1.1V21.6z"/>
		</g>
		<path fill="#0071BC" d="M21.3,12.5h-1.2v-0.6c-0.2,0.2-0.399,0.4-0.7,0.5c-0.199,0.1-0.5,0.2-0.699,0.2
			c-0.301,0-0.5-0.1-0.601-0.3C18,12.2,18,11.9,18,11.6V6.7h1.201v4.4c0,0.1,0,0.2,0.1,0.3c0,0.1,0.1,0.1,0.199,0.1
			c0.101,0,0.201,0,0.301-0.1s0.3-0.2,0.4-0.3V6.7H21.4v5.8H21.3z"/>
		<path fill="#0071BC" d="M16.5,7c-0.299-0.3-0.7-0.4-1.2-0.4S14.4,6.7,14,7c-0.3,0.3-0.5,0.6-0.5,1.1v3c0,0.5,0.2,0.9,0.5,1.2
			c0.3,0.3,0.7,0.4,1.2,0.4s0.9-0.1,1.2-0.4c0.301-0.3,0.5-0.7,0.5-1.2v-3C17,7.7,16.9,7.3,16.5,7z M15.8,11.2c0,0.2,0,0.3-0.1,0.4
			c-0.1,0.1-0.2,0.1-0.4,0.1c-0.2,0-0.3,0-0.4-0.1s-0.1-0.2-0.1-0.4V8c0-0.1,0-0.2,0.1-0.3c0.1-0.1,0.2-0.1,0.3-0.1
			c0.2,0,0.3,0,0.4,0.1c0.1,0.1,0.1,0.2,0.1,0.3v3.2H15.8z"/>
		<polygon fill="#0071BC" points="10.5,4.7 9.1,4.7 10.7,9.4 10.7,12.5 12,12.5 12,9.3 13.5,4.7 12.2,4.7 11.4,7.8 11.3,7.8 		"/>
	</g>
	<circle fill="none" stroke="#0071BC" stroke-miterlimit="10" cx="15.6" cy="15.6" r="15.2"/>
</g>
<g>
	<path fill="none" stroke="#0071BC" stroke-miterlimit="10" d="M125.229,20.251c0,9.899-8.1,17.999-17.999,17.999
		c-9.9,0-18-8.1-18-17.999c0-9.9,8.1-18,18-18C117.129,2.251,125.229,10.351,125.229,20.251z"/>
	<path fill="#0071BC" d="M116.629,13.451c0,0-0.4-1.1-2.9-1.5c-1.5-0.2-3.699,0.3-4.799,2.6c-0.701,1.6-0.4,2.8-0.4,2.8
		s-2.3,0.699-5.601-1.2c-2.4-1.4-4.199-3.8-4.199-3.8s-0.101,2.4,0.6,4.5c0.8,2.1,1.8,2.699,1.8,2.699l-2.8-1.1c0,0,0.3,1.6,1.5,2.7
		c1.1,1.1,2.9,2,2.9,2l-3.101-0.4c0,0,0.8,1.701,2.399,2.4c1.4,0.699,2.5,0.9,2.5,0.9s-0.399,0.799-2.1,1.299
		c-1.3,0.4-3.8,0.602-3.8,0.602s6.899,4.398,14.699-0.701c5.5-3.6,4.701-11.299,4.701-11.299l1.799-1.4l-2-0.1l1.5-1.6
		L116.629,13.451z"/>
</g>
</svg>
